<svg width="128" height="128" viewBox="0 0 128 128" xmlns="http://www.w3.org/2000/svg">
  <!-- Background Circle -->
  <circle cx="64" cy="64" r="60" fill="#E0F7FA" stroke="#0288D1" stroke-width="4"/>
  
  <!-- Clock Outer Circle -->
  <circle cx="64" cy="64" r="50" fill="none" stroke="#0288D1" stroke-width="4"/>
  
  <!-- Hour Marks -->
  <g stroke="#0288D1" stroke-width="2">
    <line x1="64" y1="14" x2="64" y2="24"/>
    <line x1="64" y1="104" x2="64" y2="114"/>
    <line x1="14" y1="64" x2="24" y2="64"/>
    <line x1="104" y1="64" x2="114" y2="64"/>
    <line x1="21.21" y1="21.21" x2="28.28" y2="28.28"/>
    <line x1="99.72" y1="21.21" x2="92.64" y2="28.28"/>
    <line x1="21.21" y1="106.79" x2="28.28" y2="99.72"/>
    <line x1="99.72" y1="106.79" x2="92.64" y2="99.72"/>
  </g>
  
  <!-- Clock Hands -->
  <!-- Hour Hand -->
  <line x1="64" y1="64" x2="64" y2="44" stroke="#0288D1" stroke-width="4" stroke-linecap="round"/>
  <!-- Minute Hand -->
  <line x1="64" y1="64" x2="84" y2="64" stroke="#0288D1" stroke-width="2" stroke-linecap="round"/>
  
  <!-- Yin-Yang Symbol -->
<g transform="translate(64,64)">
  <circle cx="0" cy="0" r="20" fill="none" stroke="#0288D1" stroke-width="2" opacity="0.3"/>
  <circle cx="0" cy="0" r="15" fill="none" stroke="#0288D1" stroke-width="2" opacity="0.5"/>
  <circle cx="0" cy="0" r="10" fill="none" stroke="#0288D1" stroke-width="2" opacity="0.7"/>
  <circle cx="0" cy="0" r="5" fill="#0288D1"/>
</g>
</svg>
